<?xml version="1.0" encoding="UTF-8" standalone="no"?>
<!-- Created with Inkscape (http://www.inkscape.org/) -->

<svg
   width="1000"
   height="500"
   viewBox="0 0 264.58333 132.29167"
   version="1.1"
   id="svg8"
   inkscape:version="1.2.1 (9c6d41e410, 2022-07-14)"
   sodipodi:docname="share_icon.svg"
   inkscape:export-filename="share_icon.jpg"
   inkscape:export-xdpi="96"
   inkscape:export-ydpi="96"
   xmlns:inkscape="http://www.inkscape.org/namespaces/inkscape"
   xmlns:sodipodi="http://sodipodi.sourceforge.net/DTD/sodipodi-0.dtd"
   xmlns="http://www.w3.org/2000/svg"
   xmlns:svg="http://www.w3.org/2000/svg"
   xmlns:rdf="http://www.w3.org/1999/02/22-rdf-syntax-ns#"
   xmlns:cc="http://creativecommons.org/ns#"
   xmlns:dc="http://purl.org/dc/elements/1.1/">
  <defs
     id="defs2" />
  <sodipodi:namedview
     id="base"
     pagecolor="#ffcc32"
     bordercolor="#666666"
     borderopacity="1"
     inkscape:pageopacity="0.81960784"
     inkscape:pageshadow="2"
     inkscape:zoom="0.65124676"
     inkscape:cx="491.36521"
     inkscape:cy="134.35767"
     inkscape:document-units="mm"
     inkscape:current-layer="layer1"
     showgrid="false"
     inkscape:window-width="1350"
     inkscape:window-height="1040"
     inkscape:window-x="545"
     inkscape:window-y="0"
     inkscape:window-maximized="0"
     inkscape:showpageshadow="2"
     inkscape:pagecheckerboard="0"
     inkscape:deskcolor="#d1d1d1" />
  <metadata
     id="metadata5">
    <rdf:RDF>
      <cc:Work
         rdf:about="">
        <dc:format>image/svg+xml</dc:format>
        <dc:type
           rdf:resource="http://purl.org/dc/dcmitype/StillImage" />
      </cc:Work>
    </rdf:RDF>
  </metadata>
  <g
     inkscape:label="Layer 1"
     inkscape:groupmode="layer"
     id="layer1"
     transform="translate(-92.783706,-63.524108)">
    <g
       id="g6260"
       transform="translate(20.719873,8.5317123)"
       style="fill:#ffffff">
      <path
         id="path3998"
         d="m 137.80759,145.16168 c -4.08277,0 -7.39274,-3.10067 -7.39274,-6.92526 0,-3.82459 3.30997,-6.92527 7.39274,-6.92527 4.08277,0 7.39275,3.10068 7.39275,6.92527 0,3.82459 -3.30998,6.92526 -7.39275,6.92526 z"
         inkscape:connector-curvature="0"
         style="fill-opacity:0;stroke:#000000;stroke-width:0.795021;fill:#ffffff"
         inkscape:export-xdpi="300"
         inkscape:export-ydpi="300" />
      <path
         id="path4000"
         d="m 134.52192,123.7703 c -2.26841,0 -4.10707,-1.55033 -4.10707,-3.46263 0,-1.91231 1.83866,-3.46263 4.10707,-3.46263 2.26843,0 4.10709,1.55032 4.10709,3.46263 0,1.9123 -1.83866,3.46263 -4.10709,3.46263 z"
         inkscape:connector-curvature="0"
         style="fill-opacity:0;stroke:#000000;stroke-width:0.795021;fill:#ffffff"
         inkscape:export-xdpi="300"
         inkscape:export-ydpi="300" />
      <path
         id="path4002"
         d="m 128.60772,110.22754 c -1.99603,0 -3.61423,-1.37799 -3.61423,-3.07792 0,-1.69993 1.6182,-3.07792 3.61423,-3.07792 1.99604,0 3.61424,1.37799 3.61424,3.07792 0,1.69993 -1.6182,3.07792 -3.61424,3.07792 z"
         inkscape:connector-curvature="0"
         style="fill-opacity:0;stroke:#000000;stroke-width:0.795021;fill:#ffffff"
         inkscape:export-xdpi="300"
         inkscape:export-ydpi="300" />
      <path
         id="path4004"
         d="m 116.12219,101.91715 c -2.3591,0 -4.27137,-1.27454 -4.27137,-2.847045 0,-1.5725 1.91227,-2.847057 4.27137,-2.847057 2.35911,0 4.27137,1.274557 4.27137,2.847057 0,1.572505 -1.91226,2.847045 -4.27137,2.847045 z"
         inkscape:connector-curvature="0"
         style="fill-opacity:0;stroke:#000000;stroke-width:0.795021;fill:#ffffff"
         inkscape:export-xdpi="300"
         inkscape:export-ydpi="300" />
      <path
         id="path4006"
         d="m 134.52192,94.068528 c -2.26841,0 -4.10707,-1.412441 -4.10707,-3.154838 0,-1.742398 1.83866,-3.154844 4.10707,-3.154844 2.26843,0 4.10709,1.412446 4.10709,3.154844 0,1.742397 -1.83866,3.154838 -4.10709,3.154838 z"
         inkscape:connector-curvature="0"
         style="fill-opacity:0;stroke:#000000;stroke-width:0.795021;fill:#ffffff"
         inkscape:export-xdpi="300"
         inkscape:export-ydpi="300" />
      <path
         id="path4008"
         d="m 151.4431,133.46568 c -1.63329,0 -2.9571,-1.27456 -2.9571,-2.84706 0,-1.5725 1.32381,-2.84706 2.9571,-2.84706 1.63332,0 2.9571,1.27456 2.9571,2.84706 0,1.5725 -1.32378,2.84706 -2.9571,2.84706 z"
         inkscape:connector-curvature="0"
         style="fill-opacity:0;stroke:#000000;stroke-width:0.795021;fill:#ffffff"
         inkscape:export-xdpi="300"
         inkscape:export-ydpi="300" />
      <path
         id="path4010"
         d="m 160.31441,122.53915 c -1.90536,0 -3.44995,-1.27456 -3.44995,-2.84707 0,-1.57248 1.54459,-2.84704 3.44995,-2.84704 1.90535,0 3.44995,1.27456 3.44995,2.84704 0,1.57251 -1.5446,2.84707 -3.44995,2.84707 z"
         inkscape:connector-curvature="0"
         style="fill-opacity:0;stroke:#000000;stroke-width:0.795021;fill:#ffffff"
         inkscape:export-xdpi="300"
         inkscape:export-ydpi="300" />
      <path
         id="path4012"
         d="m 163.8465,112.22817 c -1.40626,0 -2.54639,-1.30903 -2.54639,-2.92401 0,-1.61498 1.14013,-2.92402 2.54639,-2.92402 1.40627,0 2.54639,1.30904 2.54639,2.92402 0,1.61498 -1.14012,2.92401 -2.54639,2.92401 z"
         inkscape:connector-curvature="0"
         style="fill-opacity:0;stroke:#000000;stroke-width:0.795021;fill:#ffffff"
         inkscape:export-xdpi="300"
         inkscape:export-ydpi="300" />
      <path
         id="path4014"
         d="m 175.59276,110.22754 c -1.72399,0 -3.12138,-1.37799 -3.12138,-3.07792 0,-1.69993 1.39739,-3.07792 3.12138,-3.07792 1.72399,0 3.12138,1.37799 3.12138,3.07792 0,1.69993 -1.39739,3.07792 -3.12138,3.07792 z"
         inkscape:connector-curvature="0"
         style="fill-opacity:0;stroke:#000000;stroke-width:0.795021;fill:#ffffff"
         inkscape:export-xdpi="300"
         inkscape:export-ydpi="300" />
      <path
         id="path4016"
         d="m 166.39289,98.377578 c -1.45161,0 -2.62853,-0.964616 -2.62853,-2.15453 0,-1.189913 1.17692,-2.15452 2.62853,-2.15452 1.4516,0 2.62854,0.964607 2.62854,2.15452 0,1.189914 -1.17694,2.15453 -2.62854,2.15453 z"
         inkscape:connector-curvature="0"
         style="fill-opacity:0;stroke:#000000;stroke-width:0.795021;fill:#ffffff"
         inkscape:export-xdpi="300"
         inkscape:export-ydpi="300" />
      <path
         id="path4018"
         d="m 166.39289,87.758846 c -1.45161,0 -2.62853,-1.136975 -2.62853,-2.539266 0,-1.40229 1.17692,-2.539265 2.62853,-2.539265 1.4516,0 2.62854,1.136975 2.62854,2.539265 0,1.402291 -1.17694,2.539266 -2.62854,2.539266 z"
         inkscape:connector-curvature="0"
         style="fill-opacity:0;stroke:#000000;stroke-width:0.795021;fill:#ffffff"
         inkscape:export-xdpi="300"
         inkscape:export-ydpi="300" />
      <path
         id="path4020"
         d="m 165.07862,77.601785 c -0.72579,0 -1.31426,-0.930141 -1.31426,-2.077581 0,-1.14744 0.58847,-2.07758 1.31426,-2.07758 0.72581,0 1.31427,0.93014 1.31427,2.07758 0,1.14744 -0.58846,2.077581 -1.31427,2.077581 z"
         inkscape:connector-curvature="0"
         style="fill-opacity:0;stroke:#000000;stroke-width:0.795021;fill:#ffffff"
         inkscape:export-xdpi="300"
         inkscape:export-ydpi="300" />
      <path
         id="path4022"
         d="m 135.42549,82.680315 c -1.76934,0 -3.20353,-1.136975 -3.20353,-2.539266 0,-1.402289 1.43419,-2.539264 3.20353,-2.539264 1.76933,0 3.20352,1.136975 3.20352,2.539264 0,1.402291 -1.43419,2.539266 -3.20352,2.539266 z"
         inkscape:connector-curvature="0"
         style="fill-opacity:0;stroke:#000000;stroke-width:0.795021;fill:#ffffff"
         inkscape:export-xdpi="300"
         inkscape:export-ydpi="300" />
      <path
         id="path4024"
         d="m 106.92229,98.377578 c -1.45161,0 -2.62855,-0.964616 -2.62855,-2.15453 0,-1.189913 1.17694,-2.15452 2.62855,-2.15452 1.45162,0 2.62855,0.964607 2.62855,2.15452 0,1.189914 -1.17693,2.15453 -2.62855,2.15453 z"
         inkscape:connector-curvature="0"
         style="fill-opacity:0;stroke:#000000;stroke-width:0.795021;fill:#ffffff"
         inkscape:export-xdpi="300"
         inkscape:export-ydpi="300" />
      <path
         id="path4026"
         d="m 127.70418,151.0097 c -1.49695,0 -2.71069,-0.68915 -2.71069,-1.53896 0,-0.84981 1.21374,-1.53895 2.71069,-1.53895 1.49694,0 2.71067,0.68914 2.71067,1.53895 0,0.84981 -1.21373,1.53896 -2.71067,1.53896 z"
         inkscape:connector-curvature="0"
         style="fill-opacity:0;stroke:#000000;stroke-width:0.795021;fill:#ffffff"
         inkscape:export-xdpi="300"
         inkscape:export-ydpi="300" />
      <path
         id="path4028"
         d="m 118.17573,156.08822 c -1.2249,0 -2.21782,-0.79226 -2.21782,-1.76979 0,-0.97754 0.99292,-1.76979 2.21782,-1.76979 1.22491,0 2.21783,0.79225 2.21783,1.76979 0,0.97753 -0.99292,1.76979 -2.21783,1.76979 z"
         inkscape:connector-curvature="0"
         style="fill-opacity:0;stroke:#000000;stroke-width:0.795021;fill:#ffffff"
         inkscape:export-xdpi="300"
         inkscape:export-ydpi="300" />
      <path
         id="path4030"
         d="m 106.92229,159.32001 c -1.45161,0 -2.62855,-0.72329 -2.62855,-1.6159 0,-0.89259 1.17694,-1.61589 2.62855,-1.61589 1.45162,0 2.62855,0.7233 2.62855,1.61589 0,0.89261 -1.17693,1.6159 -2.62855,1.6159 z"
         inkscape:connector-curvature="0"
         style="fill-opacity:0;stroke:#000000;stroke-width:0.795021;fill:#ffffff"
         inkscape:export-xdpi="300"
         inkscape:export-ydpi="300" />
      <path
         id="path4032"
         d="m 134.52192,123.7703 1.80713,7.54085"
         inkscape:connector-curvature="0"
         style="fill-opacity:0;stroke:#000000;stroke-width:0.795021;fill:#ffffff"
         inkscape:export-xdpi="300"
         inkscape:export-ydpi="300" />
      <path
         id="path4034"
         d="m 144.7025,135.23625 4.69624,-2.54785"
         inkscape:connector-curvature="0"
         style="fill-opacity:0;stroke:#000000;stroke-width:0.795021;fill:#ffffff"
         sodipodi:nodetypes="cc"
         inkscape:export-xdpi="300"
         inkscape:export-ydpi="300" />
      <path
         id="path4036"
         d="m 153.65342,128.7043 5.18244,-6.16515"
         inkscape:connector-curvature="0"
         style="fill-opacity:0;stroke:#000000;stroke-width:0.795021;fill:#ffffff"
         sodipodi:nodetypes="cc"
         inkscape:export-xdpi="300"
         inkscape:export-ydpi="300" />
      <path
         id="path4040"
         d="m 161.30011,116.84504 2.54639,-4.61687"
         inkscape:connector-curvature="0"
         style="fill-opacity:0;stroke:#000000;stroke-width:0.795021;fill:#ffffff"
         inkscape:export-xdpi="300"
         inkscape:export-ydpi="300" />
      <path
         id="path4042"
         d="m 166.39289,109.30416 6.07849,-2.15454"
         inkscape:connector-curvature="0"
         style="fill-opacity:0;stroke:#000000;stroke-width:0.795021;fill:#ffffff"
         inkscape:export-xdpi="300"
         inkscape:export-ydpi="300" />
      <path
         id="path4044"
         d="m 163.8465,106.38014 2.54639,-8.002562"
         inkscape:connector-curvature="0"
         style="fill-opacity:0;stroke:#000000;stroke-width:0.795021;fill:#ffffff"
         inkscape:export-xdpi="300"
         inkscape:export-ydpi="300" />
      <path
         id="path4046"
         d="M 166.39289,94.068528 V 87.758846"
         inkscape:connector-curvature="0"
         style="fill-opacity:0;stroke:#000000;stroke-width:0.795021;fill:#ffffff"
         inkscape:export-xdpi="300"
         inkscape:export-ydpi="300" />
      <path
         id="path4048"
         d="m 166.39289,82.680315 -1.31427,-5.07853"
         inkscape:connector-curvature="0"
         style="fill-opacity:0;stroke:#000000;stroke-width:0.795021;fill:#ffffff"
         inkscape:export-xdpi="300"
         inkscape:export-ydpi="300" />
      <path
         id="path4050"
         d="m 133.13469,117.07822 -2.71984,-6.85068"
         inkscape:connector-curvature="0"
         style="fill-opacity:0;stroke:#000000;stroke-width:0.795021;fill:#ffffff"
         sodipodi:nodetypes="cc"
         inkscape:export-xdpi="300"
         inkscape:export-ydpi="300" />
      <path
         id="path4052"
         d="m 130.01832,104.38262 4.5036,-10.314092"
         inkscape:connector-curvature="0"
         style="fill-opacity:0;stroke:#000000;stroke-width:0.795021;fill:#ffffff"
         sodipodi:nodetypes="cc"
         inkscape:export-xdpi="300"
         inkscape:export-ydpi="300" />
      <path
         id="path4054"
         d="m 134.52192,87.758846 0.90357,-5.078531"
         inkscape:connector-curvature="0"
         style="fill-opacity:0;stroke:#000000;stroke-width:0.795021;fill:#ffffff"
         inkscape:export-xdpi="300"
         inkscape:export-ydpi="300" />
      <path
         id="path4056"
         d="m 119.97869,100.44031 6.01051,4.17549"
         inkscape:connector-curvature="0"
         style="fill-opacity:0;stroke:#000000;stroke-width:0.795021;fill:#ffffff"
         sodipodi:nodetypes="cc"
         inkscape:export-xdpi="300"
         inkscape:export-ydpi="300" />
      <path
         id="path4058"
         d="m 109.38489,96.745279 2.79783,0.85501"
         inkscape:connector-curvature="0"
         style="fill-opacity:0;stroke:#000000;stroke-width:0.795021;fill:#ffffff"
         sodipodi:nodetypes="cc"
         inkscape:export-xdpi="300"
         inkscape:export-ydpi="300" />
      <path
         id="path4060"
         d="m 129.83402,148.32043 4.43898,-3.78058"
         inkscape:connector-curvature="0"
         style="fill-opacity:0;stroke:#000000;stroke-width:0.795021;fill:#ffffff"
         sodipodi:nodetypes="cc"
         inkscape:export-xdpi="300"
         inkscape:export-ydpi="300" />
      <path
         id="path4062"
         d="m 120.47655,153.69661 5.18075,-2.9201"
         inkscape:connector-curvature="0"
         style="fill-opacity:0;stroke:#000000;stroke-width:0.795021;fill:#ffffff"
         sodipodi:nodetypes="cc"
         inkscape:export-xdpi="300"
         inkscape:export-ydpi="300" />
      <path
         id="path4064"
         d="m 109.55084,157.70411 6.65599,-2.15999"
         inkscape:connector-curvature="0"
         style="fill-opacity:0;stroke:#000000;stroke-width:0.795021;fill:#ffffff"
         sodipodi:nodetypes="cc"
         inkscape:export-xdpi="300"
         inkscape:export-ydpi="300" />
      <path
         id="path4066"
         d="m 150.62169,87.758846 c -1.17955,0 -2.13569,-1.136975 -2.13569,-2.539266 0,-1.40229 0.95614,-2.539265 2.13569,-2.539265 1.17956,0 2.13569,1.136975 2.13569,2.539265 0,1.402291 -0.95613,2.539266 -2.13569,2.539266 z"
         inkscape:connector-curvature="0"
         style="fill-opacity:0;stroke:#000000;stroke-width:0.795021;fill:#ffffff"
         inkscape:export-xdpi="300"
         inkscape:export-ydpi="300" />
      <path
         id="path4068"
         d="M 138.62901,90.91369 148.486,85.21958"
         inkscape:connector-curvature="0"
         style="fill-opacity:0;stroke:#000000;stroke-width:0.795021;fill:#ffffff"
         inkscape:export-xdpi="300"
         inkscape:export-ydpi="300" />
      <path
         id="path4070"
         d="m 151.4431,114.22881 c -1.63329,0 -2.9571,-1.10251 -2.9571,-2.46232 0,-1.35983 1.32381,-2.46233 2.9571,-2.46233 1.63332,0 2.9571,1.1025 2.9571,2.46233 0,1.35981 -1.32378,2.46232 -2.9571,2.46232 z"
         inkscape:connector-curvature="0"
         style="fill-opacity:0;stroke:#000000;stroke-width:0.795021;fill:#ffffff"
         inkscape:export-xdpi="300"
         inkscape:export-ydpi="300" />
      <path
         id="path4072"
         d="m 158.83586,116.84504 -5.09946,-3.93762"
         inkscape:connector-curvature="0"
         style="fill-opacity:0;stroke:#000000;stroke-width:0.795021;fill:#ffffff"
         sodipodi:nodetypes="cc"
         inkscape:export-xdpi="300"
         inkscape:export-ydpi="300" />
    </g>
    <g
       id="Text"
       transform="matrix(0.26458333,0,0,0.26458333,18.369644,8.1600459)" />
    <text
       xml:space="preserve"
       style="font-style:normal;font-variant:normal;font-weight:normal;font-stretch:normal;font-size:22.5778px;font-family:'Century Gothic';-inkscape-font-specification:'Century Gothic, Normal';font-variant-ligatures:normal;font-variant-caps:normal;font-variant-numeric:normal;font-variant-east-asian:normal;fill:#333333;fill-opacity:1;stroke-width:0.352999"
       x="206.94614"
       y="122.43353"
       id="text6219"><tspan
         sodipodi:role="line"
         id="tspan6217"
         style="font-style:normal;font-variant:normal;font-weight:normal;font-stretch:normal;font-size:22.57780066px;font-family:'Century Gothic';-inkscape-font-specification:'Century Gothic, Normal';font-variant-ligatures:normal;font-variant-caps:normal;font-variant-numeric:normal;font-variant-east-asian:normal;fill:#333333;fill-opacity:1;stroke-width:0.353"
         x="206.94614"
         y="122.43353">Humphries</tspan><tspan
         sodipodi:role="line"
         style="font-style:normal;font-variant:normal;font-weight:normal;font-stretch:normal;font-size:22.57780066px;font-family:'Century Gothic';-inkscape-font-specification:'Century Gothic, Normal';font-variant-ligatures:normal;font-variant-caps:normal;font-variant-numeric:normal;font-variant-east-asian:normal;fill:#333333;fill-opacity:1;stroke-width:0.353"
         x="206.94614"
         y="150.65579"
         id="tspan6221">Lab</tspan></text>
    <path
       style="fill:#ffffff;fill-opacity:1;stroke-width:2.04864"
       d="m 236.32714,335.01123 c -4.1437,-2.18597 -8.13133,-5.90674 -10.28529,-9.59698 -8.98187,-15.38804 3.59306,-34.43392 22.73478,-34.43392 20.47884,0 32.45866,23.12613 19.57883,37.79545 -8.99169,10.24097 -20.27243,12.43716 -32.02832,6.23545 z"
       id="path6932"
       transform="matrix(0.26458333,0,0,0.26458333,92.783706,63.524108)" />
    <path
       style="fill:#ffffff;fill-opacity:1;stroke-width:2.04864"
       d="m 294.16105,291.63841 c -4.73208,-4.73207 -1.0784,-14.47772 5.42775,-14.47772 3.94394,0 9.04997,4.67974 9.04997,8.29442 0,7.17918 -9.44709,11.21394 -14.47772,6.1833 z"
       id="path6934"
       transform="matrix(0.26458333,0,0,0.26458333,92.783706,63.524108)" />
    <path
       style="fill:#ffffff;fill-opacity:1;stroke-width:2.04864"
       d=""
       id="path6936"
       transform="matrix(0.26458333,0,0,0.26458333,92.783706,63.524108)" />
    <path
       style="fill:#ffffff;fill-opacity:1;stroke-width:2.04864"
       d="m 341.4332,210.24673 c -5.71498,-8.72215 4.86127,-18.11416 10.81931,-9.60786 3.2216,4.59947 3.09277,6.78256 -0.61928,10.49462 -4.12409,4.12409 -7.08549,3.86664 -10.20003,-0.88676 z"
       id="path6938"
       transform="matrix(0.26458333,0,0,0.26458333,92.783706,63.524108)" />
    <path
       style="fill:#333333;fill-opacity:1;stroke-width:2.04864"
       d="m 385.75625,204.13659 c -6.96876,-4.8811 -2.64336,-16.03585 6.21812,-16.03585 4.30028,0 8.79538,4.8832 8.79538,9.55476 0,3.52006 -5.35138,8.87144 -8.87144,8.87144 -1.50115,0 -4.26508,-1.07566 -6.14206,-2.39035 z"
       id="path6940"
       transform="matrix(0.26458333,0,0,0.26458333,92.783706,63.524108)" />
    <path
       style="fill:#333333;fill-opacity:1;stroke-width:2.04864"
       d="m 350.81642,158.87174 c -2.755,-3.04425 -2.74213,-3.21138 0.49663,-6.45014 2.7547,-2.7547 4.05221,-3.06914 7.56581,-1.83347 5.09373,1.79137 6.42852,6.59484 2.60871,9.38795 -3.92232,2.86807 -7.40206,2.50796 -10.67115,-1.10434 z"
       id="path7011"
       transform="matrix(0.26458333,0,0,0.26458333,92.783706,63.524108)" />
    <path
       style="fill:#333333;fill-opacity:1;stroke-width:2.04864"
       d=""
       id="path7013"
       transform="matrix(0.26458333,0,0,0.26458333,92.783706,63.524108)" />
    <path
       style="fill:#333333;fill-opacity:1;stroke-width:2.04864"
       d="m 208.06246,204.69208 c -9.48024,-5.3759 -5.56916,-16.59134 5.78576,-16.59134 4.31363,0 11.87267,5.86576 11.87267,9.2131 0,3.02843 -7.46528,9.21406 -11.06269,9.16641 -1.93859,-0.0257 -4.90668,-0.83036 -6.59574,-1.78817 z"
       id="path7015"
       transform="matrix(0.26458333,0,0,0.26458333,92.783706,63.524108)" />
    <path
       style="fill:#333333;fill-opacity:1;stroke-width:2.04864"
       d="m 203.45591,358.54305 c -1.65986,-2.6857 0.79247,-4.6073 5.8488,-4.58304 5.84421,0.0281 9.53886,2.04594 8.07694,4.41136 -1.31256,2.12379 -12.63302,2.26334 -13.92574,0.17168 z"
       id="path7017"
       transform="matrix(0.26458333,0,0,0.26458333,92.783706,63.524108)" />
    <path
       style="fill:#333333;fill-opacity:1;stroke-width:2.04864"
       d="m 126.5897,390.05031 c -2.5799,-1.96835 -2.67097,-2.4813 -0.67737,-3.81527 3.37349,-2.2573 10.09542,-1.92218 12.19526,0.60798 1.45552,1.75379 1.20442,2.52707 -1.24655,3.83879 -4.15733,2.22493 -6.73518,2.06644 -10.27134,-0.6315 z"
       id="path7019"
       transform="matrix(0.26458333,0,0,0.26458333,92.783706,63.524108)" />
    <path
       style="fill:#333333;fill-opacity:1;stroke-width:2.04864"
       d="m 162.76473,174.58614 c -8.3671,-1.27517 -11.721,-8.30807 -6.30112,-13.213 6.17165,-5.58526 23.19179,-1.85877 23.19179,5.07776 0,5.14145 -8.78169,9.37107 -16.89067,8.13524 z"
       id="path7021"
       transform="matrix(0.26458333,0,0,0.26458333,92.783706,63.524108)" />
    <path
       style="fill:#333333;fill-opacity:1;stroke-width:2.04864"
       d="m 325.52945,249.52139 c -1.68907,-1.68906 -3.07103,-4.05735 -3.07103,-5.26285 0,-2.53181 7.12262,-8.55679 10.11568,-8.55679 4.32285,0 9.96203,3.76633 10.8326,7.23494 2.09714,8.35571 -11.20623,13.25572 -17.87725,6.5847 z"
       id="path7023"
       transform="matrix(0.26458333,0,0,0.26458333,92.783706,63.524108)" />
    <path
       style="fill:#333333;fill-opacity:1;stroke-width:2.04864"
       d="m 233.01459,100.45332 c -3.08462,-1.796624 -3.55986,-7.603182 -0.84453,-10.318515 2.26302,-2.263016 9.60293,-2.399467 13.61349,-0.253078 3.86487,2.068414 3.86487,8.572151 0,10.640563 -3.73292,1.9978 -9.2719,1.96788 -12.76896,-0.069 z"
       id="path7025"
       transform="matrix(0.26458333,0,0,0.26458333,92.783706,63.524108)" />
    <path
       style="fill:#333333;fill-opacity:1;stroke-width:2.04864"
       d=""
       id="path7027"
       transform="matrix(0.26458333,0,0,0.26458333,92.783706,63.524108)" />
    <path
       style="fill:#ffffff;fill-opacity:1;stroke-width:1.02432"
       d="m 349.45319,81.346237 c -1.33121,-2.921686 -1.07954,-6.097155 0.64452,-8.132219 l 1.53552,-1.812511 1.53551,1.812511 c 1.83563,2.166757 1.99222,6.023015 0.34035,8.381393 -1.57161,2.243787 -2.95886,2.158561 -4.0559,-0.249174 z"
       id="path7029"
       transform="matrix(0.26458333,0,0,0.26458333,92.783706,63.524108)" />
    <path
       style="fill:#ffffff;fill-opacity:1;stroke-width:1.02432"
       d="m 171.97782,379.90797 c -6.07575,-2.38432 -4.37957,-9.04589 2.30328,-9.04589 5.15161,0 8.02559,4.54849 4.74811,7.51457 -1.55834,1.41028 -5.29308,2.22134 -7.05139,1.53132 z"
       id="path7033"
       transform="matrix(0.26458333,0,0,0.26458333,92.783706,63.524108)" />
    <path
       style="fill:#ffffff;fill-opacity:1;stroke-width:1.02432"
       d="m 231.89101,257.48268 c -10.80639,-3.23659 -12.54957,-15.04026 -2.9448,-19.94025 8.9191,-4.55018 20.56945,0.71261 20.56945,9.29181 0,7.31276 -9.5325,13.07209 -17.62465,10.64844 z"
       id="path7035"
       transform="matrix(0.26458333,0,0,0.26458333,92.783706,63.524108)" />
    <path
       style="fill:#ffffff;fill-opacity:1;stroke-width:1.02432"
       d="m 228.96287,144.21498 c -7.80938,-3.84917 -8.40051,-12.09723 -1.1587,-16.16736 6.58673,-3.70194 13.83554,-2.90392 18.8103,2.07084 4.86071,4.86072 3.55767,10.37076 -3.27713,13.85761 -3.68488,1.87989 -10.8051,1.99823 -14.37447,0.23891 z"
       id="path7037"
       transform="matrix(0.26458333,0,0,0.26458333,92.783706,63.524108)" />
    <path
       style="fill:#ffffff;fill-opacity:1;stroke-width:1.02432"
       d="m 294.22715,121.19365 c -2.90293,-1.22106 -4.20043,-8.54946 -2.0558,-11.61134 2.93925,-4.19638 7.65562,-3.73379 9.88761,0.96979 1.62975,3.43443 1.52017,5.06763 -0.54646,8.14493 -1.71821,2.55849 -4.70495,3.58202 -7.28535,2.49662 z"
       id="path7039"
       transform="matrix(0.26458333,0,0,0.26458333,92.783706,63.524108)" />
    <path
       style="fill:#ffffff;fill-opacity:1;stroke-width:1.02432"
       d="m 296.59488,221.4473 c -5.07118,-1.52474 -7.10886,-7.05539 -4.03786,-10.95952 3.83151,-4.87099 13.29471,-3.95025 15.91696,1.54866 1.12562,2.36044 1.14114,2.87599 0.13973,4.64045 -2.41144,4.24888 -7.30002,6.18921 -12.01883,4.77041 z"
       id="path7041"
       transform="matrix(0.26458333,0,0,0.26458333,92.783706,63.524108)" />
    <path
       style="fill:#ffffff;fill-opacity:1;stroke-width:1.02432"
       d="m 351.91503,120.32902 c -5.05394,-4.09385 -4.07761,-10.70044 1.9503,-13.19728 3.22834,-1.33722 7.40971,0.14566 9.34082,3.31264 2.13159,3.49577 1.8487,5.65479 -1.13141,8.63491 -2.07571,2.07571 -3.21582,2.60688 -5.56625,2.5933 -1.63387,-0.009 -3.68828,-0.61034 -4.59346,-1.34357 z"
       id="path7043"
       transform="matrix(0.26458333,0,0,0.26458333,92.783706,63.524108)" />
    <path
       style="fill:#ffffff;fill-opacity:1;stroke-width:1.02432"
       d="m 128.50605,161.28684 c -2.42932,-1.06663 -4.89699,-3.86026 -4.89699,-5.54386 0,-1.93039 3.87525,-5.48221 6.52347,-5.97902 3.30407,-0.61985 7.84968,1.32577 9.00099,3.85263 2.37963,5.22273 -4.64866,10.29532 -10.62747,7.67025 z"
       id="path7045"
       transform="matrix(0.26458333,0,0,0.26458333,92.783706,63.524108)" />
  </g>
</svg>
