<?xml version="1.0" encoding="UTF-8" standalone="no"?>
<!-- Created with Inkscape (http://www.inkscape.org/) -->

<svg
   width="60.589584mm"
   height="74.480209mm"
   viewBox="0 0 60.589584 74.480209"
   version="1.1"
   id="svg8"
   inkscape:version="1.2.1 (9c6d41e410, 2022-07-14)"
   sodipodi:docname="logo.svg"
   xmlns:inkscape="http://www.inkscape.org/namespaces/inkscape"
   xmlns:sodipodi="http://sodipodi.sourceforge.net/DTD/sodipodi-0.dtd"
   xmlns="http://www.w3.org/2000/svg"
   xmlns:svg="http://www.w3.org/2000/svg"
   xmlns:rdf="http://www.w3.org/1999/02/22-rdf-syntax-ns#"
   xmlns:cc="http://creativecommons.org/ns#"
   xmlns:dc="http://purl.org/dc/elements/1.1/">
  <defs
     id="defs2" />
  <sodipodi:namedview
     id="base"
     pagecolor="#ffffff"
     bordercolor="#666666"
     borderopacity="1.0"
     inkscape:pageopacity="0.0"
     inkscape:pageshadow="2"
     inkscape:zoom="0.65124676"
     inkscape:cx="89.059944"
     inkscape:cy="211.90125"
     inkscape:document-units="mm"
     inkscape:current-layer="layer1"
     showgrid="false"
     inkscape:window-width="1920"
     inkscape:window-height="1017"
     inkscape:window-x="-8"
     inkscape:window-y="-8"
     inkscape:window-maximized="1"
     inkscape:showpageshadow="2"
     inkscape:pagecheckerboard="0"
     inkscape:deskcolor="#d1d1d1" />
  <metadata
     id="metadata5">
    <rdf:RDF>
      <cc:Work
         rdf:about="">
        <dc:format>image/svg+xml</dc:format>
        <dc:type
           rdf:resource="http://purl.org/dc/dcmitype/StillImage" />
      </cc:Work>
    </rdf:RDF>
  </metadata>
  <g
     inkscape:label="Layer 1"
     inkscape:groupmode="layer"
     id="layer1"
     transform="translate(-92.783706,-63.524108)">
    <path
       id="path3998"
       d="m 120.10193,125.50275 c -3.28771,0 -5.95312,-2.66541 -5.95312,-5.95312 0,-3.28771 2.66541,-5.95313 5.95312,-5.95313 3.28772,0 5.95313,2.66542 5.95313,5.95313 0,3.28771 -2.66541,5.95312 -5.95313,5.95312 z"
       inkscape:connector-curvature="0"
       style="fill-opacity:0;stroke:#000000;stroke-width:0.661458"
       inkscape:export-xdpi="300"
       inkscape:export-ydpi="300" />
    <path
       id="path4000"
       d="m 117.4561,107.11421 c -1.82668,0 -3.30729,-1.3327 -3.30729,-2.97656 0,-1.64386 1.48061,-2.97656 3.30729,-2.97656 1.82668,0 3.30729,1.3327 3.30729,2.97656 0,1.64386 -1.48061,2.97656 -3.30729,2.97656 z"
       inkscape:connector-curvature="0"
       style="fill-opacity:0;stroke:#000000;stroke-width:0.661458"
       inkscape:export-xdpi="300"
       inkscape:export-ydpi="300" />
    <path
       id="path4002"
       d="m 112.6936,95.472545 c -1.60734,0 -2.91042,-1.18454 -2.91042,-2.645833 0,-1.461294 1.30308,-2.645834 2.91042,-2.645834 1.60734,0 2.91042,1.18454 2.91042,2.645834 0,1.461293 -1.30308,2.645833 -2.91042,2.645833 z"
       inkscape:connector-curvature="0"
       style="fill-opacity:0;stroke:#000000;stroke-width:0.661458"
       inkscape:export-xdpi="300"
       inkscape:export-ydpi="300" />
    <path
       id="path4004"
       d="m 102.63943,88.328795 c -1.8997,0 -3.439579,-1.09564 -3.439579,-2.447396 0,-1.351756 1.539879,-2.447396 3.439579,-2.447396 1.89971,0 3.43959,1.09564 3.43959,2.447396 0,1.351756 -1.53988,2.447396 -3.43959,2.447396 z"
       inkscape:connector-curvature="0"
       style="fill-opacity:0;stroke:#000000;stroke-width:0.661458"
       inkscape:export-xdpi="300"
       inkscape:export-ydpi="300" />
    <path
       id="path4006"
       d="m 117.4561,81.58192 c -1.82668,0 -3.30729,-1.214173 -3.30729,-2.711979 0,-1.497806 1.48061,-2.711979 3.30729,-2.711979 1.82668,0 3.30729,1.214173 3.30729,2.711979 0,1.497806 -1.48061,2.711979 -3.30729,2.711979 z"
       inkscape:connector-curvature="0"
       style="fill-opacity:0;stroke:#000000;stroke-width:0.661458"
       inkscape:export-xdpi="300"
       inkscape:export-ydpi="300" />
    <path
       id="path4008"
       d="m 131.08214,115.44859 c -1.31524,0 -2.38125,-1.09564 -2.38125,-2.4474 0,-1.35176 1.06601,-2.4474 2.38125,-2.4474 1.31525,0 2.38125,1.09564 2.38125,2.4474 0,1.35176 -1.066,2.4474 -2.38125,2.4474 z"
       inkscape:connector-curvature="0"
       style="fill-opacity:0;stroke:#000000;stroke-width:0.661458"
       inkscape:export-xdpi="300"
       inkscape:export-ydpi="300" />
    <path
       id="path4010"
       d="m 138.22589,106.05588 c -1.53432,0 -2.77812,-1.09564 -2.77812,-2.4474 0,-1.35175 1.2438,-2.44739 2.77812,-2.44739 1.53432,0 2.77813,1.09564 2.77813,2.44739 0,1.35176 -1.24381,2.4474 -2.77813,2.4474 z"
       inkscape:connector-curvature="0"
       style="fill-opacity:0;stroke:#000000;stroke-width:0.661458"
       inkscape:export-xdpi="300"
       inkscape:export-ydpi="300" />
    <path
       id="path4012"
       d="m 141.07016,97.192336 c -1.13241,0 -2.05052,-1.125272 -2.05052,-2.513541 0,-1.388269 0.91811,-2.513542 2.05052,-2.513542 1.13242,0 2.05052,1.125273 2.05052,2.513542 0,1.388269 -0.9181,2.513541 -2.05052,2.513541 z"
       inkscape:connector-curvature="0"
       style="fill-opacity:0;stroke:#000000;stroke-width:0.661458"
       inkscape:export-xdpi="300"
       inkscape:export-ydpi="300" />
    <path
       id="path4014"
       d="m 150.52902,95.472545 c -1.38827,0 -2.51354,-1.18454 -2.51354,-2.645833 0,-1.461294 1.12527,-2.645834 2.51354,-2.645834 1.38827,0 2.51354,1.18454 2.51354,2.645834 0,1.461293 -1.12527,2.645833 -2.51354,2.645833 z"
       inkscape:connector-curvature="0"
       style="fill-opacity:0;stroke:#000000;stroke-width:0.661458"
       inkscape:export-xdpi="300"
       inkscape:export-ydpi="300" />
    <path
       id="path4016"
       d="m 143.12068,85.286087 c -1.16893,0 -2.11666,-0.829205 -2.11666,-1.852084 0,-1.022879 0.94773,-1.852083 2.11666,-1.852083 1.16893,0 2.11667,0.829204 2.11667,1.852083 0,1.022879 -0.94774,1.852084 -2.11667,1.852084 z"
       inkscape:connector-curvature="0"
       style="fill-opacity:0;stroke:#000000;stroke-width:0.661458"
       inkscape:export-xdpi="300"
       inkscape:export-ydpi="300" />
    <path
       id="path4018"
       d="m 143.12068,76.157962 c -1.16893,0 -2.11666,-0.977371 -2.11666,-2.182813 0,-1.205441 0.94773,-2.182812 2.11666,-2.182812 1.16893,0 2.11667,0.977371 2.11667,2.182812 0,1.205442 -0.94774,2.182813 -2.11667,2.182813 z"
       inkscape:connector-curvature="0"
       style="fill-opacity:0;stroke:#000000;stroke-width:0.661458"
       inkscape:export-xdpi="300"
       inkscape:export-ydpi="300" />
    <path
       id="path4020"
       d="m 142.06235,67.426712 c -0.58446,0 -1.05833,-0.799571 -1.05833,-1.785938 0,-0.986366 0.47387,-1.785937 1.05833,-1.785937 0.58447,0 1.05833,0.799571 1.05833,1.785937 0,0.986367 -0.47386,1.785938 -1.05833,1.785938 z"
       inkscape:connector-curvature="0"
       style="fill-opacity:0;stroke:#000000;stroke-width:0.661458"
       inkscape:export-xdpi="300"
       inkscape:export-ydpi="300" />
    <path
       id="path4022"
       d="m 118.18371,71.792337 c -1.42479,0 -2.57969,-0.977371 -2.57969,-2.182813 0,-1.205441 1.1549,-2.182812 2.57969,-2.182812 1.42478,0 2.57968,0.977371 2.57968,2.182812 0,1.205442 -1.1549,2.182813 -2.57968,2.182813 z"
       inkscape:connector-curvature="0"
       style="fill-opacity:0;stroke:#000000;stroke-width:0.661458"
       inkscape:export-xdpi="300"
       inkscape:export-ydpi="300" />
    <path
       id="path4024"
       d="m 95.231101,85.286087 c -1.168929,0 -2.116666,-0.829205 -2.116666,-1.852084 0,-1.022879 0.947737,-1.852083 2.116666,-1.852083 1.16893,0 2.116667,0.829204 2.116667,1.852083 0,1.022879 -0.947737,1.852084 -2.116667,1.852084 z"
       inkscape:connector-curvature="0"
       style="fill-opacity:0;stroke:#000000;stroke-width:0.661458"
       inkscape:export-xdpi="300"
       inkscape:export-ydpi="300" />
    <path
       id="path4026"
       d="m 111.966,130.52984 c -1.20544,0 -2.18282,-0.59241 -2.18282,-1.32292 0,-0.73052 0.97738,-1.32292 2.18282,-1.32292 1.20544,0 2.18281,0.5924 2.18281,1.32292 0,0.73051 -0.97737,1.32292 -2.18281,1.32292 z"
       inkscape:connector-curvature="0"
       style="fill-opacity:0;stroke:#000000;stroke-width:0.661458"
       inkscape:export-xdpi="300"
       inkscape:export-ydpi="300" />
    <path
       id="path4028"
       d="m 104.29308,134.89546 c -0.98637,0 -1.78594,-0.68104 -1.78594,-1.52135 0,-0.84032 0.79957,-1.52136 1.78594,-1.52136 0.98637,0 1.78594,0.68104 1.78594,1.52136 0,0.84031 -0.79957,1.52135 -1.78594,1.52135 z"
       inkscape:connector-curvature="0"
       style="fill-opacity:0;stroke:#000000;stroke-width:0.661458"
       inkscape:export-xdpi="300"
       inkscape:export-ydpi="300" />
    <path
       id="path4030"
       d="m 95.231101,137.67359 c -1.168929,0 -2.116666,-0.62177 -2.116666,-1.38907 0,-0.76729 0.947737,-1.38906 2.116666,-1.38906 1.16893,0 2.116667,0.62177 2.116667,1.38906 0,0.7673 -0.947737,1.38907 -2.116667,1.38907 z"
       inkscape:connector-curvature="0"
       style="fill-opacity:0;stroke:#000000;stroke-width:0.661458"
       inkscape:export-xdpi="300"
       inkscape:export-ydpi="300" />
    <path
       id="path4032"
       d="m 117.4561,107.11421 1.45521,6.48229"
       inkscape:connector-curvature="0"
       style="fill-opacity:0;stroke:#000000;stroke-width:0.661458"
       inkscape:export-xdpi="300"
       inkscape:export-ydpi="300" />
    <path
       id="path4034"
       d="m 125.65416,116.97061 3.78172,-2.19019"
       inkscape:connector-curvature="0"
       style="fill-opacity:0;stroke:#000000;stroke-width:0.661458"
       sodipodi:nodetypes="cc"
       inkscape:export-xdpi="300"
       inkscape:export-ydpi="300" />
    <path
       id="path4036"
       d="m 132.86203,111.3556 4.17324,-5.29972"
       inkscape:connector-curvature="0"
       style="fill-opacity:0;stroke:#000000;stroke-width:0.661458"
       sodipodi:nodetypes="cc"
       inkscape:export-xdpi="300"
       inkscape:export-ydpi="300" />
    <path
       id="path4040"
       d="m 139.01964,101.16109 2.05052,-3.968754"
       inkscape:connector-curvature="0"
       style="fill-opacity:0;stroke:#000000;stroke-width:0.661458"
       inkscape:export-xdpi="300"
       inkscape:export-ydpi="300" />
    <path
       id="path4042"
       d="m 143.12068,94.678795 4.8948,-1.852083"
       inkscape:connector-curvature="0"
       style="fill-opacity:0;stroke:#000000;stroke-width:0.661458"
       inkscape:export-xdpi="300"
       inkscape:export-ydpi="300" />
    <path
       id="path4044"
       d="m 141.07016,92.165253 2.05052,-6.879166"
       inkscape:connector-curvature="0"
       style="fill-opacity:0;stroke:#000000;stroke-width:0.661458"
       inkscape:export-xdpi="300"
       inkscape:export-ydpi="300" />
    <path
       id="path4046"
       d="M 143.12068,81.58192 V 76.157962"
       inkscape:connector-curvature="0"
       style="fill-opacity:0;stroke:#000000;stroke-width:0.661458"
       inkscape:export-xdpi="300"
       inkscape:export-ydpi="300" />
    <path
       id="path4048"
       d="m 143.12068,71.792337 -1.05833,-4.365625"
       inkscape:connector-curvature="0"
       style="fill-opacity:0;stroke:#000000;stroke-width:0.661458"
       inkscape:export-xdpi="300"
       inkscape:export-ydpi="300" />
    <path
       id="path4050"
       d="m 116.33901,101.36154 -2.1902,-5.888995"
       inkscape:connector-curvature="0"
       style="fill-opacity:0;stroke:#000000;stroke-width:0.661458"
       sodipodi:nodetypes="cc"
       inkscape:export-xdpi="300"
       inkscape:export-ydpi="300" />
    <path
       id="path4052"
       d="m 113.8295,90.448148 3.6266,-8.866228"
       inkscape:connector-curvature="0"
       style="fill-opacity:0;stroke:#000000;stroke-width:0.661458"
       sodipodi:nodetypes="cc"
       inkscape:export-xdpi="300"
       inkscape:export-ydpi="300" />
    <path
       id="path4054"
       d="m 117.4561,76.157962 0.72761,-4.365625"
       inkscape:connector-curvature="0"
       style="fill-opacity:0;stroke:#000000;stroke-width:0.661458"
       inkscape:export-xdpi="300"
       inkscape:export-ydpi="300" />
    <path
       id="path4056"
       d="m 105.74493,87.059265 4.84006,3.589335"
       inkscape:connector-curvature="0"
       style="fill-opacity:0;stroke:#000000;stroke-width:0.661458"
       sodipodi:nodetypes="cc"
       inkscape:export-xdpi="300"
       inkscape:export-ydpi="300" />
    <path
       id="path4058"
       d="m 97.214133,83.882922 2.252988,0.734991"
       inkscape:connector-curvature="0"
       style="fill-opacity:0;stroke:#000000;stroke-width:0.661458"
       sodipodi:nodetypes="cc"
       inkscape:export-xdpi="300"
       inkscape:export-ydpi="300" />
    <path
       id="path4060"
       d="m 113.68109,128.21809 3.57456,-3.24988"
       inkscape:connector-curvature="0"
       style="fill-opacity:0;stroke:#000000;stroke-width:0.661458"
       sodipodi:nodetypes="cc"
       inkscape:export-xdpi="300"
       inkscape:export-ydpi="300" />
    <path
       id="path4062"
       d="m 106.14584,132.83957 4.17188,-2.51018"
       inkscape:connector-curvature="0"
       style="fill-opacity:0;stroke:#000000;stroke-width:0.661458"
       sodipodi:nodetypes="cc"
       inkscape:export-xdpi="300"
       inkscape:export-ydpi="300" />
    <path
       id="path4064"
       d="m 97.347768,136.28452 5.359822,-1.85678"
       inkscape:connector-curvature="0"
       style="fill-opacity:0;stroke:#000000;stroke-width:0.661458"
       sodipodi:nodetypes="cc"
       inkscape:export-xdpi="300"
       inkscape:export-ydpi="300" />
    <path
       id="path4066"
       d="m 130.42068,76.157962 c -0.94985,0 -1.71979,-0.977371 -1.71979,-2.182813 0,-1.205441 0.76994,-2.182812 1.71979,-2.182812 0.94986,0 1.7198,0.977371 1.7198,2.182812 0,1.205442 -0.76994,2.182813 -1.7198,2.182813 z"
       inkscape:connector-curvature="0"
       style="fill-opacity:0;stroke:#000000;stroke-width:0.661458"
       inkscape:export-xdpi="300"
       inkscape:export-ydpi="300" />
    <path
       id="path4068"
       d="m 120.76339,78.869941 7.9375,-4.894792"
       inkscape:connector-curvature="0"
       style="fill-opacity:0;stroke:#000000;stroke-width:0.661458"
       inkscape:export-xdpi="300"
       inkscape:export-ydpi="300" />
    <path
       id="path4070"
       d="m 131.08214,98.912128 c -1.31524,0 -2.38125,-0.947737 -2.38125,-2.116667 0,-1.168929 1.06601,-2.116666 2.38125,-2.116666 1.31525,0 2.38125,0.947737 2.38125,2.116666 0,1.16893 -1.066,2.116667 -2.38125,2.116667 z"
       inkscape:connector-curvature="0"
       style="fill-opacity:0;stroke:#000000;stroke-width:0.661458"
       inkscape:export-xdpi="300"
       inkscape:export-ydpi="300" />
    <path
       id="path4072"
       d="m 137.03527,101.16109 -4.10642,-3.384857"
       inkscape:connector-curvature="0"
       style="fill-opacity:0;stroke:#000000;stroke-width:0.661458"
       sodipodi:nodetypes="cc"
       inkscape:export-xdpi="300"
       inkscape:export-ydpi="300" />
    <g
       id="Text"
       transform="matrix(0.26458333,0,0,0.26458333,18.369644,8.1600459)" />
  </g>
</svg>
